<svg width="574" height="284" viewBox="0 0 574 284" fill="none" xmlns="http://www.w3.org/2000/svg">
<path d="M503.267 11L503.467 22L514.467 22.4L525.467 22.8V11.4V4.7639e-05H514.267H503.067L503.267 11Z" fill="#EA580C"/>
<path d="M443.467 12.2667L443.6 20.5333L451.533 20.4L459.467 20.2667L459.867 12.1333L460.267 3.99999H451.8H443.333L443.467 12.2667Z" fill="#EA580C"/>
<path d="M561 27.5333C560.533 28.0667 560.133 31.0667 560.133 34.2V40H566.8H573.467V33.3333V26.6667H567.667C564.533 26.6667 561.533 27.0667 561 27.5333Z" fill="#EA580C"/>
<path d="M466 32.5333C465.6 33.5333 465.467 37.2666 465.733 40.8666L466.133 47.3333L474.467 47.7333L482.8 48.1333V39.4V30.6666H474.733C469.133 30.6666 466.533 31.2 466 32.5333Z" fill="#EA580C"/>
<path d="M511.667 50.2C511.2 50.7333 510.8 56.7333 510.8 63.5333V76H524.133H537.467V62.6667V49.3333H525C518.2 49.3333 512.2 49.7333 511.667 50.2Z" fill="#EA580C"/>
<path d="M167 54.7333C123.333 60.5333 90.8 97.6667 90.8 141.667V152.2L99.1333 151.867C104.933 151.6 107.4 152 107.333 153.067C107.267 153.933 107.133 158.867 107 164L106.8 173.333H101.467C98.5333 173.333 96.1333 173.667 96.1333 174.067C96.1333 175.4 100.467 183.267 105.2 190.267L109.8 197.267L128.6 197.6L147.467 198V211.267V224.533L156.133 226.867C188.267 235.4 223.933 222.267 259.4 188.867L266 182.667L271.4 187.733C274.4 190.533 284.333 199.8 293.6 208.333L310.333 223.933L315.533 218.6L320.733 213.267L309.4 203C303.2 197.333 288.467 183.533 276.6 172.333C253.6 150.667 253.6 150.667 251.2 154.533C246.333 162.333 213 188 199.867 194C152.333 215.733 103.867 164.133 127.067 116.467C137.667 94.7333 164.133 80.7333 186 85.2666C206 89.3333 221.467 100.733 270.667 147.4C326.8 200.733 341.067 212.467 360.733 221.4C414.933 246 475.333 211.2 482.8 151.2C485.067 133.267 484.467 132 474 132H465.467V120.067V108.133L471.4 107.733L477.267 107.333L471.133 97L464.933 86.6667H445.2H425.467V72.7333V58.8L420.467 57.3333C386.933 47.7333 354.067 59.0667 316.067 93.6L307.667 101.2L285.867 80.3333L264 59.5333L258.467 65L253 70.5333L260.2 76.9333C264.2 80.4667 279.133 94.2 293.467 107.467L319.533 131.6L329.467 122.333C361.467 92.8 383.933 81.6 404.333 85.0667C451.733 93.2 469.467 150.133 434.867 183.133C411.4 205.533 385.333 204.8 352.8 180.733C340.733 171.8 338.467 169.8 303.8 136.667C249.533 84.8667 236.067 73.6 216.733 64.0667C199.733 55.6666 183.333 52.6 167 54.7333ZM189.2 65.8667C190.867 66.2667 194.067 67.4666 196.267 68.5333C198.467 69.6 201.133 70.2 202.2 69.8C203.267 69.4 205.067 69.8 206.133 70.6667C207.267 71.6 208.133 71.9333 208.133 71.4666C208.133 70.1333 215.933 74.4666 219 77.5333C220.467 79 222.533 79.8666 223.667 79.4666C224.733 79.0666 225.267 79.2667 224.867 79.9333C224.467 80.6 225.267 81.5333 226.667 81.9333C228.067 82.4 229.6 83.6667 230 84.8C230.4 85.9333 231.467 86.4 232.333 85.8667C233.4 85.2 233.667 86 233.2 88.4C232.467 92 234.6 93.8667 237.933 92.5333C239 92.1333 240.067 92.9333 240.467 94.5333C240.933 96.3333 241.933 96.9333 243.8 96.4666C245.533 96 247.067 96.8666 248.6 99.2666C249.867 101.133 251.6 102.667 252.467 102.667C255.067 102.667 257.867 109.6 255.8 110.933C254.867 111.467 254.733 112 255.467 112.067C256.2 112.133 257.867 112.4 259.2 112.667C261.2 113.067 261.333 112.8 260 111.133C258.6 109.467 258.8 109.4 261.6 110.667C263.333 111.533 266 114.067 267.467 116.333C268.933 118.6 272.2 121.533 274.8 122.867C277.333 124.2 278.6 125.333 277.6 125.333C276.133 125.333 276.133 125.733 277.667 127.6C278.667 128.867 278.8 129.467 277.867 128.933C277 128.4 275.933 128.533 275.467 129.333C275 130.067 276 130.667 277.8 130.667C279.533 130.667 281.733 131.4 282.733 132.333C284.2 133.667 284.333 133.667 283.467 132.133C282.733 130.867 282.867 130.6 283.933 131.2C284.8 131.733 285.467 133.2 285.467 134.467C285.467 137.133 289.933 141.333 292.8 141.333C294.133 141.333 294.8 142.667 294.8 145.267C294.8 147.4 295.4 149.533 296.133 150C296.867 150.467 297.467 150.2 297.467 149.4C297.467 146.733 300.733 148.667 304.4 153.667C306.467 156.4 309.6 159 311.4 159.467C313.2 159.867 315.067 161.333 315.467 162.667C315.867 164 318 165.8 320.2 166.667C322.467 167.667 324.533 169.667 324.933 171.467C325.4 173.2 326.267 174.333 326.933 173.933C327.6 173.533 328.133 173.8 328.133 174.6C328.133 175.333 328.8 176 329.533 176C331.2 176 333.6 178.2 336 182C337.667 184.667 337.667 184.667 336.867 182C336.133 179.4 336.133 179.4 338.133 181.933C339.2 183.333 340.133 185 340.133 185.6C340.133 186.2 340.733 186.667 341.533 186.667C342.267 186.667 344.133 187.8 345.667 189.267C347.2 190.667 351.933 193.6 356.2 195.733C360.533 197.867 363.667 200.067 363.2 200.467C362.733 200.933 363.533 201.333 364.933 201.333C366.8 201.4 367 201.667 365.667 202.533C364.267 203.4 364.4 203.8 366.267 204.533C367.533 205 368.933 204.933 369.333 204.4C370.733 202.533 374.8 202.933 374.8 204.867C374.8 206.067 375.4 206.467 376.467 205.8C377.4 205.2 377.067 206.4 375.8 208.333C374.533 210.333 373.467 212.2 373.467 212.6C373.467 213 374.533 213.333 375.8 213.333C377.8 213.267 377.867 213.133 376.133 212C375.067 211.267 374.467 210.667 374.8 210.6C375.2 210.533 376.667 210.267 378.133 210C379.6 209.733 382.4 209.2 384.333 208.8C388 208.067 390.867 211.2 387.733 212.467C386.8 212.867 387.067 213.2 388.333 213.2C389.467 213.267 391.2 212.4 392.133 211.333C393.067 210.2 394.467 209.333 395.267 209.333C396.133 209.333 395.933 210 394.8 210.8C393.2 211.933 393.333 212.133 395.733 211.6C397.333 211.267 398.933 211.667 399.333 212.467C399.733 213.533 400.533 213.4 401.733 212C403.4 210.067 405.8 209.333 411.8 209C413.467 208.867 414.8 208.2 414.8 207.467C414.8 206.733 415.533 206.867 416.4 207.733C419.333 210.667 422.6 209.667 422.2 205.933C422 203.933 422.4 202.733 423.333 203.067C424.133 203.333 427.533 201.6 430.933 199.2C435.2 196.267 438.4 195 441.267 195.2C445.467 195.467 446.933 194.133 443.8 192.867C442.533 192.333 442.667 191.733 444.2 190.4C445.333 189.467 446.667 187.6 447.2 186.333C447.667 185.067 448.667 184 449.4 184C450.2 184 450.8 183.267 450.8 182.4C450.8 181.533 452.133 179.333 453.8 177.533C455.467 175.733 455.933 174.667 454.8 175.2C453.733 175.733 453.933 175.267 455.4 174.067C456.8 172.933 457.533 172 457 172C456.467 172 456.8 170.667 457.667 169C458.6 167.333 459.533 164.867 459.733 163.4C460.4 159.6 461.467 159.067 461.467 162.6C461.467 165.2 461.8 165.4 463.467 164C465.333 162.467 465.267 161.933 463.333 159C462.133 157.133 461.667 155.267 462.333 154.8C462.933 154.4 463.533 152.933 463.6 151.667C463.933 144.267 464.133 143.733 466.467 144.533C468.4 145.2 468.4 145 466.2 143.333C464.8 142.267 464.267 141.333 465.133 141.333C467.067 141.333 473.333 149.4 472.8 151.2C471.133 157.133 470.667 157.733 469.133 156.2C466.867 153.933 465.6 154.333 465.867 157.333C465.933 158.867 466.733 159.8 467.667 159.467C468.533 159.133 470.067 159.8 471.067 161C472.333 162.6 472.333 162.933 471.133 162.2C470.2 161.6 469.4 161.667 469.267 162.267C468.267 168.667 468.067 170.2 467.867 171.667C467.8 172.6 467.2 173.333 466.6 173.333C466 173.333 465.467 174.267 465.467 175.4C465.467 176.933 464.6 177.333 462.467 176.8C460.8 176.333 460.133 176.333 460.933 176.733C462.533 177.467 461.8 184 460.133 184C459.6 184 458.8 185.2 458.4 186.667C458 188.133 456.733 189.333 455.6 189.333C454.2 189.333 453.467 190.533 453.467 192.667C453.467 194.533 453 195.933 452.467 195.867C449.933 195.467 446.8 196.067 446.933 197C447.4 199.8 446.533 201.267 443.8 202.067C442.133 202.6 438.8 204.733 436.4 206.867C434 208.933 431.133 210.667 430 210.667C428.867 210.667 427.067 211.533 425.933 212.667C424.867 213.733 422.533 214.667 420.8 214.667C419.067 214.667 416.867 215.4 415.867 216.333C413.867 218.2 400.733 219.533 401.867 217.733C402.267 217.067 401.467 216.467 400.067 216.333C398.467 216.267 397.4 217.067 397.333 218.4C397.2 220.333 397.067 220.333 396.533 218.267C396.067 216.4 395.467 216.2 394.133 217.333C392.8 218.467 391.533 218.467 389.267 217.267C387.467 216.267 386.067 216.133 385.8 216.933C385.267 218.533 377.467 217.467 377.467 215.8C377.467 215.133 376.733 214.667 375.8 214.8C373 215.267 367 213.2 365.333 211.2C364.533 210.2 362.667 209.333 361.333 209.333C359.933 209.333 357.6 208.133 356.133 206.667C354.667 205.2 353.467 204.333 353.467 204.733C353.467 205.133 352.267 204.8 350.8 204C349.333 203.2 348.133 201.333 348.133 199.8C348.133 197.467 347.467 197.133 344.133 197.6C340.667 198.133 340.133 197.8 340.133 195C340.133 193.267 339.6 192.2 338.933 192.6C337.133 193.733 329.4 188.933 330.067 187.133C330.4 186.267 329.733 185.2 328.533 184.733C326.8 184.067 326.8 183.667 328.333 181.733C329.933 179.8 329.867 179.733 327 181.2C323.2 183.267 319.867 182.133 320.4 179.067C320.6 177.733 319.933 176.667 318.8 176.667C317.733 176.6 316.933 175.8 317.133 174.933C317.333 174.067 315.8 173 313.8 172.467C308.6 171.133 305.733 168.133 308.267 166.533C309.733 165.6 309.667 165.4 307.733 165.333C306.4 165.333 305.667 164.8 306.067 164.133C306.467 163.467 305.867 162.6 304.8 162.2C303.667 161.733 302.8 162 302.8 162.733C302.8 163.6 301.867 163.6 300.133 162.667C296.867 160.933 296.6 158.4 299.8 159.6C301.8 160.4 301.867 160.2 300.4 158.333C299.4 157.133 297.733 156.533 296.6 156.933C295.4 157.4 294.4 156.667 293.933 155C293.533 153.533 291.733 151.667 289.867 150.8C287.6 149.8 286.8 148.6 287.333 147.133C287.933 145.667 287.6 145.267 286.267 145.733C285.267 146.133 283.267 145.667 281.933 144.6C280.6 143.6 280 142.733 280.667 142.733C282.867 142.6 277.4 137.6 273.267 135.933C270.4 134.733 269.467 133.6 269.867 131.867C270.333 130.267 269.6 129.133 267.867 128.6C266.467 128.133 265.667 127.4 266.067 126.933C266.533 126.467 264.933 125 262.533 123.667C260.133 122.267 259.333 121.533 260.8 122C263.133 122.733 263 122.4 260.2 119.733C258.4 118.067 255.8 116.867 254.533 117.067C253.2 117.333 252.133 116.733 252.133 115.733C252.133 114.733 250.8 113.4 249.133 112.667C247.2 111.8 246.133 110.2 246.133 108C246.133 104.133 244.4 102.467 241.4 103.4C240.2 103.733 237 102 234.133 99.4C231.267 96.8666 228.667 95.0666 228.333 95.4C228 95.7333 226.867 94.8 225.8 93.3333C224.8 91.8 223.267 91 222.533 91.5333C221.6 92.0667 221.467 91.8 222.067 90.8C223.333 88.6667 220.4 85.3333 218.067 86.2C217 86.6 216.133 86.2666 216.133 85.4666C216.133 84.6666 214.933 84 213.467 84C210.533 84 209.867 81.9333 212.467 80.9333C213.467 80.6 213.667 79.8666 212.933 79.2C212.267 78.4666 211.533 78.6667 211.2 79.6667C209.933 83.1333 205.8 81.4 204.8 77C204.133 74.0667 203.6 73.4 203.2 75C202.867 76.2667 202 77.3333 201.267 77.3333C200.6 77.3333 200.333 76.7333 200.8 76C201.267 75.2667 200.733 75.0666 199.533 75.4666C198.4 75.9333 197.8 76.8 198.2 77.4666C199.6 79.7333 197 78.6667 193.667 75.6667C191.867 74 190.867 73.5333 191.467 74.5333C192.133 75.7333 192.067 76.0666 191.133 75.5333C188.467 73.9333 158.8 74.6 158.8 76.3333C158.8 76.8666 157.067 77.3333 154.933 77.3333C152.2 77.3333 150.933 78.1333 150.4 80C149.867 82.0667 148.6 82.6667 144.933 82.6667C142.267 82.6667 140.133 83.2 140.133 83.8C140.133 85.5333 135.267 90.7333 134.467 89.8667C134.067 89.4667 132.667 91 131.333 93.2666C130 95.4666 127.8 97.3333 126.467 97.3333C125.133 97.3333 123.667 98.4 123.133 99.6667C122.667 100.933 121.533 102.8 120.6 103.733C119.667 104.667 119.267 106.4 119.733 107.6C120.333 109.2 120.067 109.467 118.8 108.667C117.467 107.867 117.267 108.133 117.867 109.867C118.4 111.133 118.267 111.8 117.667 111.467C117 111.067 115.4 111.533 114.067 112.533C112.2 113.933 110.8 114 108.533 112.933L105.4 111.533L108.333 108.467C109.933 106.733 110.867 105.333 110.333 105.333C109.8 105.333 110.4 103.8 111.6 101.933C112.867 100.067 114.667 98.8666 115.667 99.2C116.8 99.6666 117.533 98.9333 117.667 97.2666C117.933 92.6666 118.133 92 119.067 92.3333C120.067 92.7333 129.467 82.5333 129.467 81.0667C129.467 80.5333 130.4 80.4 131.467 80.8667C132.6 81.2667 133.467 81.0666 133.467 80.3333C133.467 79.6 137.133 77.6667 141.533 76.0667C146 74.4667 149.933 72.2666 150.333 71.2C150.733 70.2 152.2 69.3333 153.533 69.3333C154.8 69.3333 157.8 68.2667 160.067 67C163.667 64.9333 164.333 64.9333 165.467 66.6667C166.6 68.4 166.733 68.4 166.8 66.6C166.8 64.5333 180.8 64.1333 189.2 65.8667ZM397.467 65.1333C397.467 65.7333 400.2 66.1333 403.533 65.9333C408.333 65.7333 409.467 66.0667 408.867 67.6C408.467 68.6 408.733 69.1333 409.333 68.7333C410 68.3333 411.533 68.4 412.8 68.8667C414.6 69.5333 414.667 69.9333 413.267 70.8C411.933 71.6667 411.867 71.9333 413.133 72C414.067 72 414.8 72.6 414.8 73.3333C414.8 74.1333 408.2 74.6667 397.667 74.6667C388.267 74.6667 380.2 75.0666 379.667 75.5333C379.2 76.0666 377.267 76.6 375.333 76.8C373.4 77 371.067 78.2667 370.133 79.6C369.133 80.9333 367.933 81.6 367.4 81.0667C366.867 80.5333 365.2 80.8 363.6 81.6667C360.467 83.4 359.867 83.6 356.333 83.8C355 83.9333 353.133 85.4666 352.133 87.3333C351.133 89.1333 350.067 90.4 349.667 90C349.333 89.6667 348.4 90.6666 347.533 92.3333C346.733 94 344.867 95.5333 343.4 95.7333C341.733 95.9333 340 97.8 339.067 100.4C337.733 103.867 337.133 104.267 336.133 102.667C334.867 100.733 334.133 102.067 334.6 105.533C334.667 106 333.867 106.733 332.733 107.133C331.6 107.6 330.8 107.133 330.8 105.933C330.8 102.4 328.333 103.933 327.467 108C326.533 112.267 323.4 114.667 318.933 114.667C315.533 114.667 313.867 112.067 316.267 110.533C317.733 109.6 317.667 109.4 315.8 109.333C314.533 109.333 313.467 108.733 313.467 108.067C313.467 107.333 314.4 107.067 315.467 107.533C316.6 107.933 317.467 107.6 317.467 106.733C317.467 105.867 318.067 105.533 318.8 106C319.533 106.467 320.133 105.933 320.133 104.867C320.133 102.333 331.733 94.4 335.8 94.2C339 94 339.867 91.4 337.133 90.1333C336.2 89.7333 336.933 89.7333 338.8 90.2C341.8 90.9333 341.933 90.8 340.267 88.8C339.267 87.6 338.8 86.2 339.267 85.7333C339.733 85.2667 340.133 85.7333 340.133 86.8C340.2 88.3333 340.4 88.3333 341.467 86.6667C342.133 85.5333 343.2 84.6 343.733 84.5333C347.067 84.2 352.133 81.1333 352.133 79.4666C352.133 76.8666 358.667 74.8667 363.133 76.0667C365.2 76.6667 366.8 76.6 366.8 75.8667C366.8 75.2 365.933 74.6667 364.8 74.6667C363.733 74.6667 362.8 74.0666 362.8 73.3333C362.8 72.6 363.933 72 365.267 72C366.6 72 368.133 71.6 368.6 71.0667C369.133 70.6 370.8 69.9333 372.4 69.7333C374 69.4667 375.933 68.6667 376.8 68C377.667 67.2667 378.8 67.1333 379.333 67.6667C379.867 68.1333 380.867 67.7333 381.533 66.6C382.667 64.9333 382.933 64.9333 384.133 66.6667C385.067 68.1333 385.4 68.2 385.467 66.8667C385.467 65.6667 386.8 65.2667 390.133 65.7333C392.667 66.0667 394.467 65.8666 394.067 65.2C393.667 64.5333 394.267 64 395.4 64C396.533 64 397.467 64.5333 397.467 65.1333ZM455.4 99.9333C455.867 100.667 457.133 100.867 458.267 100.467C459.8 99.8 460.133 100.467 459.733 103.467C459.467 105.867 458.333 107.533 456.8 107.8C454.933 108.133 454.6 107.667 455.133 105.467C455.533 103.933 455.333 103 454.667 103.4C454 103.8 453.467 103.867 453.467 103.533C453.467 103.2 453.133 101.933 452.667 100.8C451.8 98.5333 454.133 97.8 455.4 99.9333ZM115.6 114.867C116.133 115.8 115.933 116.067 115.067 115.533C112.933 114.133 111.667 117.2 113.533 119.4C114.533 120.6 114.6 121.333 113.733 121.333C112.933 121.333 112.6 122.8 112.933 124.667C113.267 126.467 112.933 128 112.133 128C111.4 128 110.8 130.533 110.8 133.667C110.733 137.8 110.4 138.8 109.467 137.333C108.733 136.2 108.133 135.933 108.133 136.667C108.067 137.4 107.2 136.467 106.133 134.667C104.667 132.133 104.2 131.867 104.2 133.667C104.133 134.933 103.667 136 103.067 136C102.467 136 102.4 132.867 102.933 129C103.467 125.133 104 120.933 104.067 119.6C104.133 117.8 104.8 117.4 106.8 118C108.733 118.6 109.467 118.267 109.467 116.667C109.467 115.467 110 114.867 110.733 115.267C111.4 115.667 112.333 115.467 112.8 114.667C113.867 112.933 114.4 113 115.6 114.867ZM257 170C257.4 171.067 258.667 172 259.733 172C260.8 172 261.4 172.733 261.067 173.667C260.733 174.6 259.867 175.2 259.067 175.067C258.333 174.867 257 175.6 256.067 176.733C255.2 177.8 253.667 178.667 252.667 178.667C251.6 178.667 250.8 179.867 250.8 181.333C250.8 182.8 249.933 184 248.867 184C247.867 184 246.6 185.2 246.133 186.667C245.667 188.133 244.4 189.333 243.4 189.333C242.333 189.333 241.467 189.867 241.467 190.467C241.467 191.133 239.733 192 237.6 192.467C235.333 192.867 233.333 194.333 232.867 195.8C232.4 197.267 230.533 198.8 228.667 199.267C226.667 199.733 225.733 200.667 226.267 201.6C226.8 202.4 226.6 202.733 225.867 202.267C225.067 201.8 222.733 202.867 220.667 204.667C218.533 206.533 215.733 208 214.4 208C213.067 208 212.333 208.533 212.733 209.2C213.133 209.867 212 210.733 210.2 211.2C208.4 211.667 205.267 212.667 203.2 213.467C201.133 214.2 199.267 214.733 198.933 214.667C198.667 214.533 197.933 215.267 197.333 216.2C196.467 217.6 195.933 217.667 194.6 216.333C192.133 213.867 186.333 214.133 187.267 216.667C188.133 218.867 187.4 219.067 179.467 218.733C176.533 218.667 173.267 218.533 172.133 218.533C165.867 218.467 159.933 216.933 161.6 215.867C162.733 215.2 162.867 214.667 161.933 214.667C161.133 214.667 160.133 213.467 159.733 212.067C158.4 206.733 170 207.2 172.133 212.533C173.267 215.2 173.333 215.2 173.4 212.667C173.467 210.333 174.533 209.933 181.133 209.533C185.333 209.267 191.533 208.867 194.8 208.6C198.133 208.333 202.067 208.067 203.667 208C205.267 208 206.867 207 207.333 205.933C207.8 204.667 207.533 204.2 206.733 204.733C203.8 206.533 200.8 204.133 203.533 202.133C206.333 200.067 210.267 200.267 209.8 202.467C209.667 203.267 210.4 203.533 211.467 203.133C212.6 202.733 213.467 201.867 213.467 201.2C213.467 200.533 214.4 200 215.467 200C216.6 200 217.467 199.067 217.467 197.867C217.467 196.533 218.2 196 219.467 196.467C220.6 196.933 221.267 196.533 221.133 195.667C220.933 194.8 222.133 193.867 223.8 193.6C225.533 193.333 226.467 192.533 225.933 191.733C225.4 190.8 226.267 190.533 228.6 190.933C232.067 191.6 234.667 188.4 232.933 185.6C232.6 184.933 234.6 183 237.4 181.2C240.2 179.467 242.267 177.533 241.933 177C241.6 176.467 242.6 176 244.2 176C245.933 176 247.333 174.933 247.733 173.333C248.133 171.867 249.267 170.667 250.267 170.667C251.333 170.667 252.133 170.067 252.133 169.333C252.133 167.2 256.133 167.8 257 170ZM118.267 178.133C119.267 177.733 120.133 178.067 120.133 178.8C120.133 179.533 120.8 179.733 121.667 179.2C122.733 178.533 123 179.333 122.533 181.733C122.133 183.667 122.533 185.533 123.333 185.8C124.133 186.133 123.467 186.333 121.8 186.267C120.133 186.133 118.8 185.667 118.8 185.2C118.8 184.667 117.8 183.933 116.6 183.467C114.733 182.733 114.667 182.867 116.267 184.867C117.867 186.8 117.867 187 116.133 186.4C114.867 186 114.133 184.067 114.133 181.2C114.133 175.867 115.2 172.933 115.867 176.4C116.2 177.867 117.133 178.6 118.267 178.133Z" fill="#EA580C"/>
<path d="M512.133 108V114.667H518.8H525.467V108V101.333H518.8H512.133V108Z" fill="#EA580C"/>
<path d="M48.4667 176L48.6 182.667H55H61.4667V176V169.333H54.8667H48.2667L48.4667 176Z" fill="#EA580C"/>
<path d="M75.4 206.667V214.667H83.7333H92.1333V206.667V198.667H83.8H75.4667L75.4 206.667Z" fill="#EA580C"/>
<path d="M36.1333 221V234H49.4667H62.8V221V208H49.4667H36.1333V221Z" fill="#EA580C"/>
<path d="M5.73333 243.733L0 244.133L0.4 250.4L0.8 256.667L6.8 256.6H12.8L13.2 250.8C13.7333 243.8 13.1333 243.2 5.73333 243.733Z" fill="#EA580C"/>
<path d="M48.1333 272.667V284H59.4667H70.8V272.667V261.333H59.4667H48.1333V272.667Z" fill="#EA580C"/>
<path d="M114 270.5V279H122.5H131V270.5V262H122.5H114V270.5Z" fill="#EA580C"/>
<path d="M92 245V253H100H108V245V237H100H92V245Z" fill="#EA580C"/>
<path d="M112 218.5V233H126.5H141V218.5V204H126.5H112V218.5Z" fill="#EA580C"/>
<path d="M433 65.5V80H447.5H462V65.5V51H447.5H433V65.5Z" fill="#EA580C"/>
<path d="M482 77V86H491H500V77V68H491H482V77Z" fill="#EA580C"/>
</svg>
